<svg xmlns="http://www.w3.org/2000/svg" version="1.1" xmlns:xlink="http://www.w3.org/1999/xlink" xmlns:svgjs="http://svgjs.dev/svgjs" width="1000" height="1000" viewBox="0 0 1000 103"><rect width="1000" height="1000" fill="#000000"></rect><g transform="matrix(0.7,0,0,0.7,149.57575757575756,463.60997638789866)"><svg viewBox="0 0 396 41" data-background-color="#ffffff" preserveAspectRatio="xMidYMid meet" height="103" width="1000" xmlns="http://www.w3.org/2000/svg" xmlns:xlink="http://www.w3.org/1999/xlink"><g id="tight-bounds" transform="matrix(1,0,0,1,0.2400000000000091,0.19343307439234536)"><svg viewBox="0 0 395.52 40.61320412100046" height="40.61320412100046" width="395.52"><g><svg viewBox="0 0 453.02019375729003 46.5175" height="40.61320412100046" width="395.52"><g><svg viewBox="0 0 453.02019375729003 46.5175" height="46.5175" width="453.02019375729003"><g id="textblocktransform"><svg viewBox="0 0 453.02019375729003 46.5175" height="46.5175" width="453.02019375729003" id="textblock"><g><svg viewBox="0 0 453.02019375729003 46.5175" height="46.5175" width="453.02019375729003"><g><svg><g></g><g></g></svg></g><g><svg><g></g><g><svg></svg></g></svg></g><g id="text-0"><svg viewBox="0 0 453.02019375729003 46.5175" height="46.5175" width="453.02019375729003"><g><svg xmlns="http://www.w3.org/2000/svg" xmlns:xlink="http://www.w3.org/1999/xlink" version="1.0" x="0" y="0" viewBox="4.667731951646829 4.685959745359883 90.30503348557724 90.30465734357294" enable-background="new 0 0 100 100" xml:space="preserve" height="46.5175" width="46.51769375729004" class="icon-z$-0" data-fill-palette-color="accent" id="z$-0"><path d="M17.504 35.743c-1.334 8.611 0.522 17.134 5.093 23.382 3.514 4.801 8.413 7.905 13.796 8.739 5.677 0.88 11.253-0.429 15.703-3.685 1.248-0.912 2.36-1.946 3.326-3.076-2.222 0.978-4.814 1.267-7.626 0.831-11.717-1.816-19.673-13.464-17.735-25.964 0.934-6.03 4.384-11.497 9.713-15.397 6.768-4.952 15.953-6.97 25.201-5.537 7.474 1.158 17.67 5.964 25.56 15.213 0 0-22.835-39.421-56.115-20.356C23.689 16.04 18.653 28.323 17.504 35.743z" fill="#ffffff" data-fill-palette-color="accent"></path><path d="M82.544 65.256c1.659-8.555 0.125-17.141-4.207-23.557-3.331-4.931-8.109-8.217-13.457-9.253-5.639-1.094-11.261 0.004-15.83 3.091-1.282 0.863-2.431 1.854-3.44 2.947 2.257-0.894 4.859-1.084 7.652-0.543 11.64 2.257 19.151 14.196 16.744 26.616-1.161 5.989-4.815 11.324-10.288 15.019-6.949 4.692-16.205 6.364-25.393 4.582C26.902 82.719 16.894 77.532 9.358 67.992c0 0 21.331 40.255 55.307 22.457C75.621 84.712 81.115 72.628 82.544 65.256z" fill="#ffffff" data-fill-palette-color="accent"></path><path d="M35.726 82.88c8.611 1.334 17.133-0.522 23.381-5.094 4.801-3.514 7.905-8.413 8.74-13.796 0.879-5.676-0.429-11.253-3.686-15.702-0.912-1.248-1.946-2.36-3.076-3.327 0.979 2.222 1.267 4.815 0.831 7.626-1.816 11.717-13.463 19.673-25.965 17.736-6.029-0.934-11.497-4.385-15.395-9.713-4.952-6.768-6.971-15.954-5.538-25.202 1.158-7.474 5.964-17.67 15.213-25.559 0 0-39.421 22.835-20.356 56.115C16.022 76.695 28.305 81.73 35.726 82.88z" fill="#ffffff" data-fill-palette-color="accent"></path><path d="M90.432 35.718c-5.738-10.955-17.822-16.45-25.194-17.879-8.554-1.659-17.141-0.125-23.557 4.208-4.931 3.331-8.217 8.108-9.254 13.456-1.094 5.64 0.004 11.261 3.092 15.83 0.863 1.282 1.854 2.431 2.946 3.441-0.894-2.257-1.084-4.859-0.542-7.652 2.257-11.64 14.196-19.151 26.615-16.744 5.99 1.161 11.324 4.816 15.019 10.289 4.693 6.949 6.363 16.204 4.583 25.392-1.44 7.423-6.626 17.431-16.167 24.966C67.973 91.025 108.228 69.694 90.432 35.718z" fill="#ffffff" data-fill-palette-color="accent"></path></svg></g><g transform="matrix(1,0,0,1,57.50019375729004,8.588126854599404)"><svg width="395.52" viewBox="5 -28.75 387.53 28.75" height="29.34124629080119" data-palette-color="#ff9900"><path d="M5 0L5-28.75 21-28.75 21-23.1 11.3-23.1 11.3-17.2 21-17.2 21-11.5 11.3-11.5 11.3-5.85 21-5.85 21 0 5 0ZM33.8 0L39.45-3.4 39.45-12.15 34.75-14.35 39.45-16.6 39.45-25.3 33.8-28.75 23.45-28.75 23.45-23.1 33.15-23.1 33.15-17.2 23.45-17.2 23.45-11.5 33.15-11.5 33.15-5.85 23.45-5.85 23.45 0 33.8 0ZM47.45-25.3L47.45-25.3 53.3-28.75 63.65-28.75 63.65-23.1 53.75-23.1 53.75-5.85 63.45-5.85 63.45 0 53.3 0 47.45-3.4 47.45-25.3ZM81.9-25.3L81.9-25.3 76.25-28.75 65.9-28.75 65.9-23.1 75.6-23.1 75.6-5.85 65.9-5.85 65.9 0 76.25 0 81.9-3.4 81.9-25.3ZM89.9-25.3L89.9-25.3 95.75-28.75 106.1-28.75 106.1-23.1 96.2-23.1 96.2-5.85 105.9-5.85 105.9 0 95.75 0 89.9-3.4 89.9-25.3ZM124.35-25.3L124.35-25.3 118.7-28.75 108.35-28.75 108.35-23.1 118.05-23.1 118.05-5.85 108.35-5.85 108.35 0 118.7 0 124.35-3.4 124.35-25.3ZM133.34 0L133.34-28.75 139.64-28.75 139.64-17.2 142.44-17.2 142.44-11.5 139.64-11.5 139.64 0 133.34 0ZM167.79-2.85L149.34-14.35 167.79-25.9 161.89-28.75 144.29-17.2 144.29-11.5 161.89 0 167.79-2.85ZM173.29-28.75L173.29-28.75 178.99-28.75 189.29-19.05 189.29-11.5 179.59-20.65 179.59 0 173.29 0 173.29-28.75ZM207.74-28.75L207.74-28.75 202.09-28.75 191.74-19.05 191.74-11.5 201.44-20.65 201.44 0 207.74 0 207.74-28.75ZM217.74-28.75L217.74-28.75 233.74-28.75 233.74-22.85 224.04-22.85 224.04-17.2 233.74-17.2 233.74-11.5 224.04-11.5 224.04-5.65 233.54-5.65 233.54 0 217.74 0 217.74-28.75ZM236.19-5.65L236.19-5.65 236.19 0 252.19 0 252.19-5.65 236.19-5.65ZM252.19-22.85L252.19-22.85 252.19-28.75 235.99-28.75 235.99-22.85 252.19-22.85ZM244.09-11.5L244.09-11.5 244.09-17.2 235.99-17.2 235.99-11.5 244.09-11.5ZM257.09 0L257.09-6.9 263.99-6.9 263.99 0 257.09 0ZM271.98-3.4L271.98-25.3 277.83-28.75 288.18-28.75 288.18-23.1 278.48-23.1 278.48-5.85 287.98-5.85 287.98 0 277.83 0 271.98-3.4ZM306.63-9.3L300.13-9.3 300.13-5.85 290.63-5.85 290.63 0 300.78 0 306.63-3.4 306.63-9.3ZM300.13-19.6L306.63-19.6 306.63-25.3 300.78-28.75 290.43-28.75 290.43-23.1 300.13-23.1 300.13-19.6ZM314.63-25.3L314.63-25.3 320.48-28.75 330.83-28.75 330.83-23.1 320.93-23.1 320.93-5.85 330.63-5.85 330.63 0 320.48 0 314.63-3.4 314.63-25.3ZM349.08-25.3L349.08-25.3 343.43-28.75 333.08-28.75 333.08-23.1 342.78-23.1 342.78-5.85 333.08-5.85 333.08 0 343.43 0 349.08-3.4 349.08-25.3ZM358.08-28.75L358.08-28.75 363.78-28.75 374.08-19.05 374.08-11.5 364.38-20.65 364.38 0 358.08 0 358.08-28.75ZM392.53-28.75L392.53-28.75 386.88-28.75 376.53-19.05 376.53-11.5 386.23-20.65 386.23 0 392.53 0 392.53-28.75Z" opacity="1" transform="matrix(1,0,0,1,0,0)" fill="#ffffff" class="wordmark-text-0" data-fill-palette-color="primary"></path></svg></g></svg></g></svg></g></svg></g></svg></g></svg></g><defs></defs></svg><rect width="395.52" height="40.61320412100046" fill="none" stroke="none" visibility="hidden"></rect></g></svg></g></svg>